<?xml version="1.0" ?><!DOCTYPE svg  PUBLIC '-//W3C//DTD SVG 1.1//EN'  'http://www.w3.org/Graphics/SVG/1.1/DTD/svg11.dtd'><svg height="180px" style="enable-background:new 0 0 512 512;" version="1.1" viewBox="0 0 512 512" width="180px" xml:space="preserve" xmlns="http://www.w3.org/2000/svg" xmlns:xlink="http://www.w3.org/1999/xlink"><g id="_x36_02_x2C__Launch_x2C__mission_x2C__shuttle_x2C__startup_x2C__publish"><g><path d="M215.035,67.403c3.294,2.004,6.842,3.616,10.595,4.792    c4.47,1.381,9.214,2.118,14.167,2.118c4.906,0,9.604-0.737,14.027-2.073c3.707-1.15,7.231-2.74,10.479-4.698    c-6.795-11.011-14.972-22.825-24.83-35.84l-0.229,0.3l-0.232,0.299C230.56,43.68,222.453,55.242,215.035,67.403 M301.156,185.703    l-0.022,1.013c-0.853,32.108-3.433,64.194-3.823,96.372h19.578v-82.943L301.156,185.703z M251.566,137.886    c-3.017-3.018-7.186-4.884-11.792-4.884c-4.608,0-8.775,1.866-11.794,4.884c-2.994,3.017-4.86,7.187-4.86,11.792    c0,4.607,1.867,8.776,4.86,11.793c3.019,2.995,7.186,4.861,11.794,4.861c4.606,0,8.775-1.866,11.792-4.861    c3.018-3.017,4.883-7.186,4.883-11.793C256.449,145.072,254.584,140.902,251.566,137.886z M239.774,127.336    c6.171,0,11.746,2.512,15.777,6.542c4.054,4.054,6.564,9.628,6.564,15.8c0,6.15-2.511,11.725-6.542,15.778    c-4.054,4.03-9.628,6.542-15.8,6.542c-6.15,0-11.725-2.512-15.779-6.542c-4.054-4.054-6.542-9.628-6.542-15.778    c0-6.172,2.488-11.746,6.542-15.777C228.049,129.848,233.624,127.336,239.774,127.336z M178.412,185.68l-15.754,14.465v82.943    h19.601c-0.369-26.696-1.979-51.457-3.132-78.244C178.828,198.463,178.573,192.061,178.412,185.68z M254.698,260.952h-29.85    v33.513h29.85V260.952z M262.254,260.952h-1.89v33.513h31.187c0.209-77.621,17.896-150.982-24.322-222.086    c-3.662,2.188-7.602,3.984-11.746,5.252c-4.977,1.52-10.25,2.349-15.686,2.349c-5.482,0-10.802-0.852-15.825-2.396    c-4.192-1.289-8.154-3.109-11.839-5.344c-26.879,45.837-29.506,77.854-27.755,123.527l0.023,0.645l0.023,0.301l0.023,0.322    l0.024,0.645l0.023,0.645l0.022,0.646v0.275l0.023,0.369l0.023,0.645l0.045,0.645l0.023,0.646v0.276l0.024,0.368l0.023,0.668    l0.045,0.645c1.267,28.009,2.902,54.474,3.226,82.414v0.068c0.022,2.787,0.045,5.62,0.068,8.476h31.187v-33.513h-1.913    c-1.565,0-2.832-1.29-2.832-2.833v-60.094c0-1.566,1.267-2.833,2.832-2.833h44.962c1.565,0,2.832,1.267,2.832,2.833v60.094    C265.086,259.662,263.819,260.952,262.254,260.952z M220.126,255.286h1.751h0.16h35.495h0.139h1.75v-54.428h-39.294V255.286z     M343.699,275.232c0,1.566-1.268,2.833-2.832,2.833c-1.567,0-2.834-1.267-2.834-2.833v-46.182l-15.295,6.059v48.001l18.013,36.231    l18.242-36.254v-48.002l-15.294-6.173V275.232z M141.513,275.232c0,1.566-1.267,2.833-2.832,2.833    c-1.544,0-2.834-1.267-2.834-2.833v-46.319l-15.272,6.173v48.024l18.22,36.231l18.013-36.231v-48.001l-15.294-6.059V275.232z     M275.153,400.718c0,1.567-1.292,2.834-2.834,2.834c-1.567,0-2.834-1.267-2.834-2.834v-40.077c0-1.566,1.267-2.833,2.834-2.833    c1.542,0,2.834,1.267,2.834,2.833V400.718z M242.606,406.454c0,1.565-1.267,2.832-2.832,2.832c-1.567,0-2.834-1.267-2.834-2.832    v-57.123c0-1.567,1.267-2.833,2.834-2.833c1.565,0,2.832,1.266,2.832,2.833V406.454z M226.345,394.983    c0,1.542-1.267,2.832-2.832,2.832c-1.567,0-2.834-1.29-2.834-2.832v-57.146c0-1.567,1.267-2.834,2.834-2.834    c1.565,0,2.832,1.267,2.832,2.834V394.983z M236.94,327.266c0-1.566,1.267-2.834,2.834-2.834c1.565,0,2.832,1.268,2.832,2.834    v13.497c0,1.566-1.267,2.833-2.832,2.833c-1.567,0-2.834-1.267-2.834-2.833V327.266z M269.485,327.266    c0-1.566,1.267-2.834,2.834-2.834c1.542,0,2.834,1.268,2.834,2.834v21.305c0,1.566-1.292,2.833-2.834,2.833    c-1.567,0-2.834-1.267-2.834-2.833V327.266z M284.274,360.133c-1.406,0.668-3.087,0.07-3.732-1.358    c-0.669-1.405-0.046-3.087,1.359-3.731c2.948-1.404,6.104-2.487,9.374-3.201c3.201-0.715,6.52-1.105,9.881-1.105    c2.004,0,4.054,0.161,6.08,0.414c1.567,0.207,3.135,0.507,4.654,0.875c1.475-0.967,3.063-1.773,4.768-2.372l0.139-0.022    c2.049-0.691,4.238-1.061,6.494-1.061c5.644,0,10.779,2.28,14.489,6.012c3.73,3.732,6.034,8.846,6.034,14.488    c0,1.589-0.207,3.179-0.553,4.676c-0.254,1.082-0.598,2.143-1.014,3.156c1.267,2.693,2.258,5.527,2.995,8.498    c0.553,2.281,0.921,4.631,1.128,7.026l1.013-0.093c1.474-0.139,2.88-0.207,4.239-0.207c2.557,0,5.137,0.207,7.647,0.646    c2.118,0.368,4.215,0.874,6.219,1.52c1.22-0.599,2.487-1.083,3.8-1.429c1.705-0.459,3.502-0.691,5.321-0.691    c5.644,0,10.78,2.281,14.487,5.989c3.73,3.732,6.012,8.868,6.012,14.512c0,1.542-0.161,3.063-0.507,4.538    c-0.253,1.081-0.575,2.141-0.989,3.132c1.012,2.486,1.842,5.091,2.395,7.784c0.645,3.041,0.99,6.196,0.99,9.376l-0.068,1.635    h14.325c1.567,0,2.834,1.268,2.834,2.832c0,1.545-1.267,2.834-2.834,2.834h-17.273h-0.046H93.351h-0.23H72.92    c-1.565,0-2.832-1.289-2.832-2.834c0-1.564,1.267-2.832,2.832-2.832h16.261c-0.414-1.313-0.783-2.649-1.083-3.984    c-0.599-2.719-0.921-5.528-0.921-8.407c0-2.856,0.323-5.644,0.898-8.316c0.484-2.233,1.176-4.422,2.051-6.541    c-0.739-1.29-1.314-2.648-1.751-4.076c-0.553-1.889-0.876-3.869-0.876-5.919c0-5.644,2.304-10.779,6.012-14.489    c3.732-3.73,8.846-6.034,14.512-6.034c3.132,0,6.103,0.714,8.776,1.98c2.279,1.083,4.329,2.58,6.057,4.399l3.501-0.161    c1.842,0,3.685,0.139,5.504,0.392l1.82,0.3c0.207-3.823,0.944-7.509,2.188-10.964c1.337-3.777,3.248-7.302,5.621-10.457    l-0.277-1.475c-0.137-0.99-0.207-2.004-0.207-2.994c0-5.666,2.281-10.803,5.989-14.511c3.708-3.708,8.846-6.012,14.512-6.012    c3.915,0,7.577,1.105,10.709,3.018c2.789,1.704,5.138,4.077,6.842,6.863c2.764,0.438,5.459,1.198,7.993,2.188    c3.062,1.197,5.941,2.787,8.568,4.676c1.267,0.921,1.565,2.672,0.644,3.939c-0.898,1.266-2.671,1.542-3.938,0.645    c-2.235-1.613-4.699-2.972-7.326-3.984c-2.532-1.014-5.25-1.705-8.084-2.051c-0.898-0.115-1.727-0.645-2.165-1.52    c-1.244-2.465-3.155-4.516-5.482-5.943c-2.234-1.383-4.906-2.165-7.761-2.165c-4.101,0-7.809,1.658-10.504,4.354    c-2.673,2.672-4.354,6.38-4.354,10.503c0,0.737,0.07,1.475,0.161,2.188c0.116,0.737,0.277,1.428,0.461,2.05    c0.276,0.875,0.114,1.889-0.507,2.648c-2.373,2.926-4.285,6.288-5.575,9.928c-1.243,3.478-1.911,7.256-1.911,11.218l0.023,1.358    c0,0.3-0.046,0.575-0.116,0.853c-0.437,1.497-2.004,2.35-3.501,1.911c-1.451-0.414-2.994-0.737-4.606-0.967    c-1.52-0.207-3.086-0.323-4.722-0.323l-2.166,0.048l-2.118,0.207c-0.921,0.113-1.913-0.232-2.534-1.015    c-1.383-1.704-3.157-3.087-5.136-4.03c-1.936-0.922-4.101-1.429-6.38-1.429c-4.101,0-7.831,1.658-10.504,4.354    c-2.695,2.673-4.354,6.403-4.354,10.504c0,1.497,0.23,2.948,0.623,4.306c0.437,1.406,1.058,2.719,1.843,3.917    c0.53,0.782,0.644,1.819,0.229,2.718c-0.967,2.118-1.751,4.399-2.256,6.795c-0.484,2.279-0.762,4.651-0.762,7.117    c0,2.486,0.277,4.906,0.785,7.208c0.391,1.797,0.921,3.525,1.588,5.184h296.093l0.023-1.635c0-2.834-0.299-5.598-0.852-8.223    c-0.577-2.695-1.428-5.321-2.511-7.81c-0.323-0.736-0.323-1.59,0.022-2.35c0.484-0.989,0.854-2.049,1.105-3.132    c0.23-1.037,0.369-2.143,0.369-3.316c0-4.101-1.682-7.809-4.354-10.504c-2.695-2.673-6.403-4.354-10.503-4.354    c-1.36,0-2.649,0.185-3.87,0.507c-1.221,0.346-2.396,0.83-3.455,1.429c-0.713,0.437-1.611,0.575-2.465,0.275    c-2.096-0.737-4.26-1.313-6.496-1.681c-2.141-0.369-4.398-0.553-6.701-0.553c-1.337,0-2.581,0.045-3.709,0.161    c-1.244,0.093-2.464,0.277-3.708,0.507l-0.484,0.046c-1.565,0.022-2.832-1.244-2.854-2.786c-0.023-3.087-0.416-6.105-1.105-9.008    c-0.737-2.947-1.797-5.827-3.157-8.498c-0.368-0.76-0.414-1.704,0-2.511c0.484-1.013,0.898-2.096,1.153-3.226    c0.252-1.082,0.391-2.211,0.391-3.408c0-4.1-1.658-7.809-4.33-10.503c-2.695-2.672-6.426-4.354-10.527-4.354    c-1.658,0-3.223,0.276-4.674,0.76l-0.139,0.046c-1.567,0.53-3.019,1.313-4.285,2.304c-0.69,0.53-1.589,0.737-2.487,0.484    c-1.636-0.438-3.364-0.807-5.113-1.037l-0.093-0.022c-1.704-0.23-3.501-0.346-5.344-0.346c-3.017,0-5.919,0.322-8.659,0.943    C289.64,357.969,286.876,358.913,284.274,360.133z M40.973,461.55c-1.565,0-2.833-1.292-2.833-2.834    c0-1.567,1.267-2.832,2.833-2.832h308.185c1.544,0,2.811,1.265,2.811,2.832c0,1.542-1.267,2.834-2.811,2.834H40.973z     M221.438,480.298c-1.565,0-2.832-1.29-2.832-2.833c0-1.566,1.267-2.834,2.832-2.834h213.242c1.565,0,2.832,1.268,2.832,2.834    c0,1.543-1.267,2.833-2.832,2.833H221.438z M456.516,480.298c-1.565,0-2.832-1.29-2.832-2.833c0-1.566,1.267-2.834,2.832-2.834    h26.65c1.565,0,2.833,1.268,2.833,2.834c0,1.543-1.268,2.833-2.833,2.833H456.516z M28.835,479.722    c-1.567,0-2.834-1.267-2.834-2.832c0-1.567,1.267-2.834,2.834-2.834h101.045c1.567,0,2.834,1.267,2.834,2.834    c0,1.565-1.267,2.832-2.834,2.832H28.835z M196.677,312.04h7.533l0.207,59.956c0,1.565,1.267,2.832,2.832,2.832    c1.567,0,2.834-1.267,2.834-2.832l-0.207-59.956h43.141l0.207,59.956c0,1.565,1.267,2.832,2.811,2.832    c1.565,0,2.832-1.267,2.832-2.832l-0.207-59.956h24.208v-11.909h-86.191V312.04z" style="fill-rule:evenodd;clip-rule:evenodd;"/></g></g><g id="Layer_1"/></svg>