<?xml version="1.0" ?><svg data-name="Your Icons" id="Your_Icons" viewBox="0 0 96 96" xmlns="http://www.w3.org/2000/svg"><defs><style>.cls-1{fill:#231f20;}</style></defs><title/><path class="cls-1" d="M87.72,48C77.06,33.41,62.89,25.38,47.81,25.38h0c-15.08,0-29.26,8-39.91,22.63a.49.49,0,0,0,0,.59C18.55,63.19,32.73,71.23,47.81,71.23s29.25-8,39.91-22.63A.49.49,0,0,0,87.72,48ZM47.81,70.23c-14.65,0-28.45-7.78-38.89-21.93C19.36,34.16,33.16,26.38,47.81,26.38S76.26,34.16,86.7,48.3C76.26,62.45,62.46,70.23,47.81,70.23Z"/><path class="cls-1" d="M48,32.75A15.25,15.25,0,1,0,63.25,48,15.27,15.27,0,0,0,48,32.75Zm0,29.5A14.25,14.25,0,1,1,62.25,48,14.26,14.26,0,0,1,48,62.25Z"/><path class="cls-1" d="M48,41.27A6.73,6.73,0,1,0,54.73,48,6.74,6.74,0,0,0,48,41.27Zm0,12.46A5.73,5.73,0,1,1,53.73,48,5.74,5.74,0,0,1,48,53.73Z"/><path class="cls-1" d="M48,23a.5.5,0,0,0,.5-.5V13.77a.5.5,0,1,0-1,0v8.75A.5.5,0,0,0,48,23Z"/><path class="cls-1" d="M62.68,24.71a.57.57,0,0,0,.18,0,.49.49,0,0,0,.46-.31L66,17.53a.5.5,0,1,0-.93-.36l-2.68,6.89A.5.5,0,0,0,62.68,24.71Z"/><path class="cls-1" d="M77,32.17a.51.51,0,0,0,.4-.2l4.25-5.67a.5.5,0,0,0-.1-.7.51.51,0,0,0-.7.1L76.6,31.37a.5.5,0,0,0,.1.7A.57.57,0,0,0,77,32.17Z"/><path class="cls-1" d="M32.68,24.43a.49.49,0,0,0,.46.31.57.57,0,0,0,.18,0,.5.5,0,0,0,.29-.65l-2.68-6.89a.5.5,0,1,0-.93.36Z"/><path class="cls-1" d="M18.6,32a.51.51,0,0,0,.4.2.57.57,0,0,0,.3-.1.5.5,0,0,0,.1-.7L15.15,25.7a.51.51,0,0,0-.7-.1.5.5,0,0,0-.1.7Z"/><path class="cls-1" d="M48,73a.5.5,0,0,0-.5.5v8.75a.5.5,0,1,0,1,0V73.48A.5.5,0,0,0,48,73Z"/><path class="cls-1" d="M63.32,71.57a.49.49,0,0,0-.64-.28.5.5,0,0,0-.29.65l2.68,6.89a.51.51,0,0,0,.47.32.57.57,0,0,0,.18,0,.5.5,0,0,0,.28-.65Z"/><path class="cls-1" d="M77.4,64a.51.51,0,0,0-.7-.1.5.5,0,0,0-.1.7l4.25,5.67a.51.51,0,0,0,.4.2.47.47,0,0,0,.3-.1.5.5,0,0,0,.1-.7Z"/><path class="cls-1" d="M33.32,71.29a.49.49,0,0,0-.64.28L30,78.47a.5.5,0,0,0,.28.65.57.57,0,0,0,.18,0,.51.51,0,0,0,.47-.32l2.68-6.89A.5.5,0,0,0,33.32,71.29Z"/><path class="cls-1" d="M18.6,64,14.35,69.7a.5.5,0,0,0,.1.7.47.47,0,0,0,.3.1.51.51,0,0,0,.4-.2l4.25-5.67a.5.5,0,0,0-.1-.7A.51.51,0,0,0,18.6,64Z"/></svg>